<svg xmlns="http://www.w3.org/2000/svg" version="1.1" xmlns:xlink="http://www.w3.org/1999/xlink" width="1500" height="1500" viewBox="0 0 1500 1500"><rect width="1500" height="1500" x="0" y="0" id="background" stroke="transparent" fill="#000000"></rect><svg xml:space="preserve" width="1000" height="1000" data-version="2" data-id="lg_WKDtnIXwptzD5sBQRB" viewBox="0 0 114 93" x="250" y="250"><rect width="100%" height="100%" fill="transparent"></rect><path fill="#eeeeee" d="M36.295 78.83q-2.18 0-4.16-.73-1.98-.72-3.75-1.91-1.76-1.18-3.4-2.66-1.65-1.47-3.15-3.02-.72 1.55-1.71 2.88-.99 1.33-2.3 2.34-1.3 1.02-2.9 1.6-1.59.58-3.48.58-2.46 0-4.37-.85-1.91-.85-3.22-2.25-1.3-1.4-2-3.24-.7-1.83-.7-3.86 0-2.42.91-4.43.92-2 2.49-3.43 1.57-1.42 3.6-2.22 2.03-.8 4.26-.8.82 0 1.62.12.8.12 1.57.36-.87-3.19-2.22-6.21-1.36-3.02-2.64-6.16t-2.22-6.62q-.95-3.48-.95-7.64 0-3.19.78-6.33.77-3.15 2.2-6.02 1.42-2.88 3.5-5.34 2.08-2.47 4.69-4.28 2.61-1.81 5.73-2.83 3.12-1.01 6.65-1.01 3.33 0 6.04 1.01 2.71 1.02 4.66 2.78 1.96 1.76 3.02 4.21 1.07 2.44 1.07 5.34t-.87 5.56q-.87 2.65-2.37 4.98-1.5 2.32-3.48 4.2-1.98 1.89-4.21 3.24-2.22 1.35-4.54 2.08-2.32.72-4.45.72-1.01 0-1.91-.34-.89-.33-1.59-1.01-.7-.68-1.11-1.74-.42-1.06-.42-2.51 0-1.31.78-1.31.24 0 .65.34.41.34 1.23.34 2.47 0 5.03-1.21t4.67-3.12q2.1-1.91 3.43-4.25 1.33-2.35 1.33-4.57 0-1.45-.44-2.73-.43-1.28-1.33-2.27-.89-1-2.25-1.55-1.35-.56-3.23-.56-3.44 0-6.24 1.53-2.8 1.52-4.83 4.06-2.03 2.53-3.15 5.89-1.11 3.36-1.11 7.04 0 2.56.58 5.05.58 2.49 1.45 4.93.87 2.44 1.91 4.93 1.04 2.49 1.94 5.12.89 2.64 1.52 5.42t.72 5.82q1.6 1.55 3.07 3.1 1.48 1.54 2.93 2.82 1.45 1.29 2.9 2.08 1.45.8 2.99.8 2.08 0 3.44-.92 1.35-.92 2.17-2.29.82-1.38 1.16-2.98.34-1.59.34-2.9 0-.67-.1-1.08-.09-.42-.09-.71 0-.72 1.21-.72 2.61 0 4.01 1.33t1.4 3.16q0 2.91-.92 5.56-.92 2.66-2.58 4.74-1.67 2.08-4.04 3.31-2.37 1.24-5.22 1.24m-24.56-15.18q-1.5 0-2.54 1.01-1.04 1.02-1.04 2.66 0 1.4.9 2.54.89 1.13 2.58 1.13 1.02 0 1.82-.46.8-.45 1.38-1.23.58-.77.94-1.76t.51-2.1q-1.12-.83-2.23-1.31-1.11-.48-2.32-.48"></path><rect width="47.9" height="73.96" x="-23.95" y="-36.98" fill="none" rx="0" ry="0" transform="translate(25.6 42.35)"></rect><path fill="#eeeeee" d="M81.825 44.84q4.79-.96 7.35-3.38 2.56-2.42 3.77-5.78 1.21-3.36 1.57-7.44.37-4.09.78-8.51.41-4.42 1.37-8.89.97-4.48 3.39-8.63.14-.34.68-.83.53-.48 1.4-.48.92 0 1.95.24 1.04.24 1.91.66.87.41 1.43.94.56.53.56 1.11 0 .73-.78 1.11-1.54 2.32-2.44 5.15-.89 2.83-1.42 5.9-.54 3.07-.92 6.31-.39 3.23-.9 6.4-.5 3.17-1.33 6.19-.82 3.02-2.22 5.65-1.4 2.64-3.6 4.77-2.2 2.12-5.49 3.57 3.48 1.89 5.78 4.55 2.29 2.66 3.89 5.77 1.6 3.12 2.73 6.53 1.14 3.41 2.32 6.74 1.19 3.34 2.64 6.46 1.45 3.11 3.72 5.63.19.24.51.36l.62.24q.32.12.54.29.21.17.21.46 0 .73-.82 1.62-.82.89-1.96 1.69-1.13.8-2.24 1.33-1.12.53-1.7.53-.72 0-1.3-.62-2.08-2.62-3.48-5.39-1.4-2.78-2.44-5.64-1.04-2.85-1.82-5.68-.77-2.82-1.57-5.46-.79-2.63-1.78-5-1-2.37-2.45-4.33-1.45-1.96-3.5-3.43-2.06-1.47-4.96-2.3v22.38q0 1.26-.82 1.77t-1.93.51q-.87 0-1.74-.24-.87-.25-1.57-.63-.7-.39-1.16-.9-.46-.51-.46-1.09V13.57q-3.34.43-6.31 1.88-2.97 1.45-5.17 3.97-2.2 2.51-3.48 6.09-1.28 3.57-1.28 8.26 0 3 .62 5.39.63 2.4 1.5 4.06.87 1.67 1.74 2.59.87.92 1.36.92.43 0 .82-.2.39-.19.77-.19.78 0 .78 1.21 0 1.55-.71 2.97-.7 1.43-1.76 2.32-1.06.9-2.32 1.14-1.26.24-2.32-.53-1.31-.87-2.78-2.66-1.47-1.79-2.71-4.33-1.23-2.54-2.03-5.73-.79-3.19-.79-6.96 0-5.22 1.25-9.35 1.26-4.13 3.36-7.23 2.1-3.09 4.91-5.27 2.8-2.17 5.9-3.53 3.09-1.35 6.28-1.95 3.19-.61 6.09-.61.77 0 1.5.32.72.31 1.26.87.53.55.87 1.33.33.77.33 1.64Z"></path><rect width="61.77" height="90.2" x="-30.89" y="-45.1" fill="none" rx="0" ry="0" transform="translate(81.46 46.5)"></rect></svg></svg>