<?xml version='1.0' encoding='utf-8'?>
<svg xmlns="http://www.w3.org/2000/svg" version="1.1" viewBox="0 0 720 1358"> <g> <path d="m47.687 551.41c7.2731 1.8684 14.813 6.3391 20.118 12.011 7.1731 7.6067 11.11 16.448 13.712 30.694 2.669 14.713 4.3706 30.727 5.238 49.544 0.43375 9.4752 0.23355 40.903-0.33362 51.045-1.0676 18.883-2.669 38.634-4.871 60.387-7.3732 72.164-8.8079 90.013-9.5084 118.17-1.101 44.072 3.77 85.309 13.345 112.93 8.6076 24.889 30.193 66.392 54.782 105.29l3.6365 5.7384 145.33 1e-4c131.08-1e-4 145.3-0.0668 145.1-0.5005-0.1001-0.3003-2.2687-3.8701-4.8043-7.9404-26.257-42.137-46.174-81.105-54.548-106.83-4.1703-12.778-7.9404-32.529-9.8755-51.712-1.5347-15.147-2.0352-26.123-2.0352-45.04 0-28.092 1.5013-51.746 6.1721-97.086 6.5728-63.79 8.1408-83.541 8.8414-111.73 0.3003-12.544 0-31.261-0.66723-41.07-1.2678-18.65-4.2038-40.503-6.6726-49.711-4.871-18.35-17.516-31.228-34.03-34.698-2.1019-0.4337-19.551-0.50036-147.56-0.5005l-145.2 0.03346 3.8367 0.96741z"/> <path d="m636.17 558.74c-1.4278 0.77524-3.815 2.202-5.2962 3.1504-1.5077 0.95865-3.1628 2.006-3.7006 2.3391-1.3862 0.88074-10.009 7.1655-12.631 9.2319-12.123 9.5179-10.724 8.3595-19.01 15.423-2.1162 1.8067-4.7285 4.0516-5.7893 4.9865-1.0506 0.96103-2.1538 1.9429-2.4808 2.1935-0.3167 0.27661-1.5308 1.3628-2.6923 2.4284-1.1612 1.0657-2.8187 2.5698-3.7 3.3428-1.6521 1.4409-5.0892 4.6799-5.6868 5.4018-0.21145 0.23511-0.48574 0.46486-0.61733 0.51673-0.15797 0.06223-1.6576 1.5044-3.374 3.2447-1.7164 1.7402-3.7077 3.7102-4.4415 4.3944-0.734 0.6842-1.7316 1.6248-2.207 2.1161-0.48585 0.465-2.6459 2.6231-4.8163 4.7549-2.1602 2.1583-4.6161 4.646-5.4824 5.5345-0.856 0.91492-1.6217 1.6726-1.6743 1.6934-0.26316 0.10376-6.4445 6.6431-14.84 15.666-3.2865 3.544-11.087 12.302-14.766 16.549-1.1472 1.3336-2.6062 3.0333-3.23 3.7651-2.0508 2.3588-8.5647 10.215-9.3426 11.251-0.41797 0.55984-0.97326 1.2346-1.2269 1.517-0.26396 0.256-0.73468 0.83654-1.0681 1.3024-0.3175 0.42894-0.86236 1.1301-1.1742 1.4962-0.33814 0.37657-1.613 2.0035-2.8453 3.5836-2.4968 3.2332-2.6077 3.3379-4.0784 5.3158-0.57685 0.77465-1.1057 1.439-1.1846 1.4702-0.07898 0.031-0.63972 0.7688-1.2539 1.6796-1.5884 2.298-3.9805 5.6421-4.4775 6.2332-0.7666 0.90991-1.6082 2.0929-3.6094 5.0399-1.1064 1.5912-2.2027 3.2085-2.4619 3.5537-0.91015 1.2402-3.7857 5.596-3.9716 5.9732-0.09582 0.22022-0.4348 0.74903-0.77862 1.1884-0.30708 0.45556-0.65644 0.9579-0.76251 1.1517-0.09015 0.15711-1.097 1.7697-2.2465 3.5604-2.9666 4.6651-4.9432 7.9066-7.2336 11.819-1.3041 2.2469-6.4822 11.797-7.2097 13.269-0.17535 0.40381-1.5506 3.165-3.0481 6.1571-3.3928 6.748-7.264 15.601-9.8743 22.406-1.0658 2.8523-2.2959 5.9823-2.69 6.9889-0.40442 0.98024-0.99712 2.7948-1.3347 4.0223-0.31121 1.2169-1.0692 3.4613-1.6498 4.9978l-1.0236 2.8051-1.5568-2.6404c-0.86438-1.4229-1.9427-3.1569-2.4012-3.8581-2.1008-3.0949-7.1351-8.7743-8.2094-9.2634-0.66058-0.2872-0.66058-0.2872-0.73718 0.2902-0.01758 0.3414 0.9491 3.3358 2.1605 6.7202 4.2456 11.706 6.007 21.35 5.4672 30.016-0.18921 2.9934-0.32167 3.1976-2.1283 3.0881-2.2109-0.1327-6.4582-1.6524-10.686-3.818-2.0905-1.0619-3.8828-1.9064-3.988-1.865-0.52655 0.20716-0.12055 0.9292 1.7067 3.0982 2.4118 2.881 6.0352 6.1361 8.1983 7.3823 1.6288 0.96995 1.4045 1.6358-0.44832 1.332-1.1389-0.1898-3.3149-0.0016-6.1968 0.55543-2.6241 0.51687-11.963 4.1339-11.918 4.6337 0.01831 0.50964 1.4468 0.5856 3.8126 0.26184 1.1199-0.16748 2.4919-0.31264 3.0748-0.29907 0.57268-0.01257 2.2014-0.04627 3.6251-0.05967 4.0194-0.0628 8.5657 0.5183 10.925 1.4133 1.1799 0.4475 2.1545 0.91504 2.1432 1.0413-0.0119 0.27834-1.6974 3.1009-1.9081 3.1838-0.10522 0.0415-0.46027 0.60694-0.8208 1.2355-0.92852 1.7341-0.97082 1.7812-2.6987 4.6507-0.89027 1.4451-1.8602 3.0739-2.1888 3.6289-0.32867 0.5553-0.89593 1.5083-1.2828 2.1472-0.39716 0.61264-1.2029 1.9637-1.7861 2.9533-1.4366 2.4512-2.7992 4.7815-4.4951 7.5784-0.7578 1.241-1.5157 2.4819-1.6536 2.749-0.29687 0.48195-1.6705 2.9384-2.1531 3.7973-0.16431 0.27784-0.8639 1.4349-1.5635 2.5923-0.7154 1.1941-1.4047 2.3778-1.5427 2.645-0.32386 0.64429-1.5012 2.7501-2.3436 4.0853-0.35503 0.5653-0.9701 1.6288-1.3786 2.3671-0.40839 0.73864-1.4054 2.5301-2.243 3.9548-2.5767 4.42-5.4086 9.4272-9.1315 16.032-0.6892 1.1835-1.5323 2.6713-1.9089 3.3363-0.36052 0.62866-1.2516 2.2259-1.9362 3.4988-0.71063 1.2834-1.5274 2.7609-1.8561 3.3161-4.9737 8.6786-7.5001 13.535-7.3136 14.009 0.31116 0.7895 1.5417 0.5177 3.4188-0.7384 1.6766-1.147 2.8342-2.454 3.7107-4.3198 0.48352-1.0112 1.9155-3.5516 5.6008-10.02 5.4037-9.5172 7.0423-12.382 7.5464-13.341 0.30243-0.5448 0.9015-1.5713 1.3625-2.3304 0.461-0.75976 1.076-1.8229 1.3521-2.3573 0.81689-1.4772 1.9146-3.3993 2.7042-4.7139 0.37646-0.66528 1.2405-2.0998 1.8874-3.2363 1.7974-3.0796 2.6986-4.651 4.0237-6.8451 0.65729-1.1103 1.7757-2.9797 2.465-4.1633 3.0432-5.2428 3.7427-6.4 4.6387-7.9083 0.53528-0.87976 1.5052-2.5084 2.1467-3.5819 0.65722-1.1104 1.7117-2.8332 2.3372-3.8701 0.59893-1.0265 1.4469-2.4245 1.8497-3.1001 0.7157-1.1941 2.4115-3.9905 3.8793-6.3624 0.40282-0.6755 1.2667-2.1106 1.9344-3.1944 0.65735-1.1104 1.5053-2.5084 1.9025-3.121 0.37097-0.6022 1.2085-2.0268 1.8498-3.1005 0.65741-1.11 1.4997-2.445 1.8812-3.0207 0.38118-0.57617 1.0009-1.5502 1.3721-2.1522 0.37085-0.60214 1.2187-2.0006 1.8864-3.0844 1.6056-2.6393 2.1514-3.4925 4.578-7.3673 1.1392-1.8169 2.8137-4.5133 3.7301-5.9694 0.9165-1.4554 2.5431-4.0419 3.6343-5.7489 2.1722-3.4398 3.3537-5.304 5.9972-9.4769 1.7589-2.7907 2.9929-4.6756 5.2168-7.984 0.63025-0.94763 1.1762-1.8007 1.2239-1.9108 0.03753-0.1365 0.31835-0.5814 0.62542-1.0371 0.30707-0.45534 0.77851-1.1885 1.0593-1.6334 0.28064-0.44506 1.0273-1.5602 1.6416-2.4711 0.6407-0.921 2.4727-3.6801 4.0779-6.1669 1.6049-2.4869 3.0821-4.6804 3.2512-4.8686 0.16919-0.18814 0.65094-0.8949 1.0641-1.544 1.0865-1.7962 2.2248-3.4607 2.5894-3.8475 0.16925-0.1885 0.60883-0.84766 0.97955-1.4501 1.1128-1.8066 3.7501-5.7641 5.7139-8.5749 1.0061-1.4602 1.9537-2.837 2.0494-3.0571 0.12213-0.23034 1.1702-1.7379 2.3188-3.3762 1.1751-1.6487 2.3294-3.3498 2.6467-3.7789 0.42926-0.68605 1.1704-1.738 2.2609-3.2926 0.14826-0.24074 0.92127-1.3661 1.6943-2.4915 0.76251-1.1517 1.4558-2.0938 1.5084-2.1145 0.07892-0.031 0.55518-0.6749 1.0528-1.4181 0.4873-0.76964 0.99554-1.4868 1.1064-1.5913 0.33265-0.3133 4.3027-5.9819 4.3778-6.2545 0.04775-0.1101 0.21219-0.3878 0.39175-0.5497 0.16895-0.1881 0.66114-0.8685 1.1111-1.5018 0.4236-0.6229 1.207-1.722 1.7254-2.4126 0.50805-0.71716 1.9264-2.6746 3.091-4.3492 1.2013-1.6591 2.2279-3.0668 2.3069-3.0978 0.07886-0.0313 0.39636-0.4605 0.7091-0.9789 0.5354-0.8795 4.1074-5.7832 5.1069-7.0282 0.24341-0.3086 0.97876-1.2977 1.6193-2.219 0.651-0.895 2.0476-2.7526 3.0951-4.1075 1.0474-1.355 2.4441-3.2125 3.0846-4.1339 0.6509-0.89502 1.3705-1.8473 1.5979-2.1192 0.2273-0.272 0.6555-0.8057 0.9468-1.2243 0.89414-1.2036 5.8614-7.6596 6.1893-8.0625 0.16907-0.18834 0.5552-0.6748 0.8463-1.0936 0.2753-0.38194 1.5394-2.0358 2.8246-3.6363 1.2588-1.5902 3.1205-3.9653 4.1095-5.2371 2.9354-3.7405 7.2136-9.0136 8.9901-11.142 0.90943-1.0879 1.9247-2.3695 2.2214-2.8513 0.32313-0.4923 1.1695-1.5857 1.9202-2.459 0.7506-0.8733 1.7341-2.0818 2.1576-2.7048 0.4396-0.65957 0.97315-1.2345 1.1837-1.3174 0.21083-0.0829 0.4485-0.3286 0.5442-0.5487 0.38294-0.8805 14.796-17.321 21.887-24.948 4.211-4.5168 7.7718-8.2906 7.877-8.3323 0.05284-0.0206 0.9453-0.91965 1.9701-2.0227 1.8914-1.9916 5.0814-5.1633 10.108-10.002 1.5155-1.4788 2.973-2.8735 3.2531-3.1661 0.81834-0.77847 1.3989-1.3114 3.2783-3.0247 0.98193-0.90355 2.7505-2.5124 3.9014-3.6041 2.3652-2.1781 4.9513-4.4128 10.238-8.7454 5.2921-4.3952 5.5082-4.5414 5.5497-4.4361 0.0933 0.23703-0.9204 1.2138-3.4639 3.4017-1.4829 1.2531-2.9554 2.5322-3.3304 2.8927-0.3485 0.35-1.4149 1.3482-2.3385 2.1681-0.92395 0.8197-2.075 1.9116-2.5607 2.3767-0.4753 0.49134-2.6987 2.6437-4.9376 4.8331-5.0061 4.8909-4.853 4.7394-7.7582 7.7079-9.3917 9.6588-22.169 23.691-28.973 31.814-0.8512 1.0041-1.8289 2.1498-2.1935 2.5364-0.5919 0.65869-2.0669 2.395-5.3925 6.3805-0.78244 0.94704-1.9613 2.3537-2.5747 3.1124-0.6239 0.73204-1.211 1.48-1.3275 1.6476-0.09006 0.15723-0.93076 1.1876-1.8506 2.2493-0.90944 1.0878-1.9192 2.3065-2.2629 2.7462-0.3175 0.42895-0.95716 1.1978-1.3856 1.7314-2.4849 2.955-5.6317 6.9311-5.9236 7.5022-0.1859 0.3772-1.408 1.9836-2.6828 3.6105-1.2746 1.6273-2.4752 3.1339-2.6339 3.3485-0.15884 0.2146-0.88864 1.1405-1.629 2.0404-0.7297 0.9259-2.3961 3.1026-3.7186 4.8397-1.3124 1.7632-2.5344 3.3696-2.6931 3.5841-0.1587 0.2147-1.1638 1.5227-2.2007 2.904-1.037 1.3816-1.9839 2.6057-2.1107 2.7471-0.1006 0.1309-0.6032 0.7848-1.0851 1.4912-1.0745 1.518-1.1909 1.6852-2.8836 3.8725-0.71934 0.95239-1.4813 1.9518-1.6664 2.1769-0.44421 0.57006-3.0695 4.2493-3.9852 5.5525-0.36523 0.53933-0.80408 1.0464-0.96193 1.1087-0.15794 0.0622-0.3486 0.3502-0.45006 0.6333-0.08534 0.2463-0.67324 1.1469-1.2762 1.9317-1.5181 1.9359-1.4015 1.7684-4.5884 6.3377-1.5564 2.2244-3.2655 4.6006-3.7842 5.2912-0.54494 0.70116-1.1798 1.5592-1.4127 1.8943-1.9696 2.8737-3.3672 4.8837-3.6263 5.2289-0.1851 0.2251-1.4821 2.1043-2.9118 4.1873-1.4397 2.0575-2.705 3.8628-2.8579 4.0144-0.12684 0.14113-0.9684 1.324-1.8475 2.6432-0.88934 1.2929-2.642 3.8684-3.9128 5.7372-2.4298 3.4806-5.2887 7.647-7.3115 10.694-0.63025 0.94751-1.7263 2.5648-2.4148 3.5962-0.68842 1.0313-1.7158 2.5913-2.2773 3.4816-0.56158 0.89-1.589 2.4502-2.2878 3.4552-0.68848 1.031-1.8004 2.6854-2.4785 3.7429-0.68835 1.0315-1.5413 2.3402-1.9066 2.8794-0.35505 0.56544-1.2499 1.9212-1.9862 3.0629-0.71002 1.131-1.7374 2.6911-2.267 3.5078-0.51373 0.78014-1.2822 1.9946-1.6953 2.6438-0.41314 0.6493-0.95874 1.5029-1.2236 1.9111-0.27508 0.3821-0.94286 1.466-1.5466 2.4032-0.56726 0.953-1.16 1.7643-1.318 1.8266-0.13141 0.05175-0.30615 0.30298-0.33886 0.52869-0.07575 0.42516-2.3381 4.0224-4.4298 7.1266-0.23285 0.33486-0.92677 1.4295-1.5203 2.3928-2.2998 3.7335-4.6155 7.5036-5.1077 8.184-0.95312 1.4397-1.7054 2.6179-3.0942 4.9589-0.78986 1.3144-1.6218 2.6759-1.8547 3.011-0.48187 0.7063-2.7393 4.3929-5.2729 8.6139-0.92198 1.5186-1.8602 3.0738-2.1194 3.4196-0.23297 0.3347-0.73627 1.141-1.1129 1.806-1.6386 2.8651-2.5868 4.3943-3.079 5.0745-0.29113 0.41894-0.82165 1.3879-1.1989 2.2054-0.67506 1.4517-0.67506 1.4517 0.04126 2.1122 1.9452 1.6964 4.1727 5.6537 6.6928 11.898 0.64277 1.632 1.3178-0.8231 1.0763-3.8293-0.25354-2.728-1.4409-6.6691-2.7217-8.8402-0.64038-1.0855-1.1134-2.0548-1.0656-2.1648 0.04797-0.1101 2.704 0.3032 5.9161 0.8929 5.8729 1.0923 10.372 1.6308 14.317 1.6886 12.996 0.2631 23.579-3.3584 31.799-10.822 2.2221-2.0002 2.8252-2.7852 2.6075-3.3379-0.17621-0.4475-0.40754-0.4171-2.045 0.2887-2.2589 0.98096-5.5517 1.7305-7.6844 1.7192-2.0594 0.02076-6.8045-0.75574-7.7528-1.2337l-0.76483-0.3981 0.98345-0.2048c1.0203-0.18887 4.6239-1.1522 7.7122-2.0343 4.3671-1.2639 11.724-4.5871 15.088-6.8548 3.7904-2.4962 7.0577-5.3945 11.301-9.9847 3.915-4.1873 3.7827-4.9863-0.4585-2.7081-4.4149 2.3777-10.257 4.3744-15.158 5.2102-4.091 0.7296-7.5741 0.76364-13.292 0.2186-3.4497-0.34424-5.1079-0.69446-8.7738-1.8959-2.4805-0.81675-4.4098-1.5466-4.2989-1.651 0.24817-0.21934 1.7826-0.3374 4.9875-0.3834 2.1016-0.068 2.4854-0.0973 6.0181-0.546 1.0305-0.16286 2.3394-0.3136 2.8913-0.37905 0.55188-0.06518 2.0667-0.38805 3.3658-0.71789 1.2891-0.35546 3.4039-0.8534 4.7032-1.1829 1.3886-0.3341 5.4941-1.7991 9.8531-3.5466 6.7384-2.6543 7.9444-3.2205 11.933-5.5214 5.3539-3.082 10.047-6.4506 13.78-9.8664 0.62305-0.57995 2.4337-2.2358 4.049-3.6928 1.6048-1.4836 3.2098-2.967 3.548-3.3434 0.3383-0.37645 0.95644-1.0458 1.3737-1.4534 1.2151-1.2384 5.7648-6.284 6.6639-7.3984 0.4546-0.54394 1.565-1.8934 2.4639-3.0076 1.8931-2.2961 1.7182-2.045 4.645-6.1167 1.254-1.6798 2.3069-3.0979 2.3596-3.1188 0.05264-0.02063 0.81985-1.083 1.6673-2.3289 0.84729-1.2456 1.6145-2.308 1.6671-2.329 0.07896-0.03086 0.6086-0.84775 1.218-1.848 0.5831-0.9896 1.1655-1.8273 1.2708-1.8688 0.07895-0.03103 0.47055-0.58043 0.84155-1.1827 0.3606-0.6283 2.1411-3.519 3.9216-6.4093 1.7908-2.8645 3.4237-5.6664 3.6367-6.2062 0.3623-0.93334 0.3783-0.96996-0.26709-1.1413-0.37231-0.09656-0.88206-0.07826-1.119 0.01514-1.1054 0.4354-6.5349 0.932-9.6449 0.9103-0.91418-0.0049-1.9542-0.0209-2.2851-0.0121l-0.61976-0.02956 0.49526-0.28637c0.2688-0.16663 1.6263-0.57971 2.9889-0.90332 3.4242-0.80139 9.7328-3.621 13.049-5.778 4.4653-2.9446 7.5681-5.5655 11.504-9.7004 1.0512-1.1132 1.9965-2.0328 2.128-2.0847 0.36855-0.14504 0.42749-1.3847 0.10375-1.7438-0.1986-0.19531-0.698-0.15066-1.5506 0.15454-1.2634 0.4978-6.555 1.7307-8.9892 2.1118-1.8666 0.2791-6.5111 0.3754-6.8198 0.1321-0.2145-0.15857 0.25915-0.3452 1.4692-0.6699 0.97303-0.23147 2.2096-0.5663 2.7302-0.7105 2.4729-0.6698 8.4909-3.2228 10.678-4.5405 2.7146-1.6771 5.7887-3.8304 6.9078-4.8491 2.5182-2.3296 4.3201-4.3163 6.4834-7.0839 2.2903-2.9087 2.9676-3.814 5.3861-7.1687 1.7517-2.4232 3.9031-5.9159 5.548-8.9964 2.303-4.3427 2.3694-4.9467 0.3114-4.2273-1.6631 0.56384-6.1282 1.5018-7.7522 1.6245-0.76723 0.05906-2.1494 0.1778-3.0325 0.25205-1.4454 0.11291-3.1797 0.18765-5.7382 0.25305-0.45715-0.0023-1.045-0.1052-1.3122-0.24316-0.4347-0.25428-0.39234-0.30154 0.35436-0.41324 3.8069-0.6787 10.36-3.1078 14.065-5.2054 4.6001-2.6023 8.3363-5.7766 15.515-13.104 1.6744-1.6934 9.6703-10.65 10.881-12.131 0.50245-0.65394 1.3959-1.7052 1.9878-2.3639s1.5914-1.9039 2.2424-2.7987c0.63486-0.8584 1.3965-1.8576 1.6926-2.187 0.2959-0.3296 0.76661-0.9102 1.0311-1.3185 0.3016-0.39246 1.0371-1.3815 1.6404-2.1661 1.4757-1.8886 5.5995-7.8612 6.9608-10.04 0.5779-0.92675 1.1443-1.7276 1.2494-1.769 0.0791-0.03101 0.328-0.40271 0.54014-0.79053 0.17541-0.40354 1.3059-2.5513 2.4839-4.8094 5.8277-11.143 9.2646-23.26 9.182-32.502-6.3e-4 -0.85085 0.02077-1.9542 0.03907-2.4479 0.09985-1.9851-0.65516-6.2184-1.6801-9.1289-2.24-6.5365-7.0493-13.034-11.23-15.158-0.9116-0.4619-1.7386-1.0179-1.8113-1.2023-0.21778-0.55273-3.5454-1.1272-4.7395-0.83923-0.61034 0.1489-1.6831 0.35877-2.4033 0.4601-1.7507 0.2638-6.4944 2.193-9.6348 3.9468z"/> <path d="m570.69 970.6c-2.8024 0.9674-4.3372 2.7356-4.2704 4.9709 0.03334 2.6356 1.9684 4.7376 4.9711 5.3715 0.9342 0.20008 1.1009 0.36694 1.2678 1.6346 0.3336 2.0686-0.4004 9.5752-1.201 12.845-2.6358 10.543-9.6085 19.017-19.984 24.221-3.6699 1.8684-9.2081 3.7367-14.279 4.8711-7.1063 1.6013-9.9754 2.9358-12.978 5.9719-1.835 1.8683-3.9368 5.9385-4.8042 9.2415-2.3689 9.0746 0.0332 22.954 6.172 35.565 1.8684 3.9034 4.9712 8.8745 6.8395 11.01l1.1009 1.2343-0.70054 0.8675c-0.9342 1.1677-0.9342 3.403-0.03346 4.5708 0.8008 1.0008 0.9342 1.0341 7.4066 1.9016 14.713 1.9684 44.206 2.9026 63.757 2.0019 16.048-0.734 32.863-2.1686 35.532-3.036 2.0685-0.6672 2.5689-3.5031 1.0342-5.7051l-0.63379-0.9008 1.6681-2.202c3.4697-4.604 6.7727-10.91 9.2749-17.749 4.604-12.544 5.3382-25.623 1.8683-32.996-2.1352-4.5707-7.6067-8.1072-14.646-9.475-5.4382-1.0676-13.412-3.9036-17.482-6.239-12.511-7.1397-19.384-19.384-18.984-33.763l0.1001-3.4364 1.6681-0.63366c2.9359-1.1011 4.1704-2.7025 4.1704-5.4717 0-1.1677-0.20017-1.7348-1.001-2.6356-2.0685-2.3353-2.0685-2.3353-19.184-2.4022-12.344-0.0667-15.614 0-16.648 0.36716z"/> </g> </svg>