<?xml version='1.0' encoding='utf-8'?>
<svg xmlns="http://www.w3.org/2000/svg" width="497.5" height="810" viewBox="0 0 398 648"> <g transform="matrix(.19577,0,0,-.19577,0,648)"> <path d="m690 3251c-25-4-74-21-110-38-36-16-97-42-137-58-113-44-236-168-259-261-4-16-15-40-26-53-10-13-18-28-18-32 0-5-9-28-19-52-11-23-27-80-35-127-42-231-43-253-22-395 8-55 10-94 5-101-6-8-5-14 4-17 7-3 19-31 26-63 24-112 75-198 232-391 20-26 49-106 44-123-4-14 0-17 21-17 51 0 60-28 69-217 9-173 12-229 20-346 8-123 15-285 18-390 1-77 7-114 20-139 9-19 17-49 17-68 0-28 4-33 23-33 13 0 27-4 33-10 5-5 40-10 78-11 98-3 119-16 151-97 35-90 67-126 139-152 83-31 173-29 246 7 30 15 60 30 65 35 42 33 66 59 85 96 12 23 27 42 32 42 6 0 7 11 4 26-6 22-2 27 22 36 16 6 34 23 40 37s16 33 21 41 12 23 15 33c3 9 27 31 53 47 46 29 74 77 54 90-5 3-10 23-12 45-1 22-6 45-11 51-4 6-8 231-9 501l-2 491 39 54c21 29 41 55 45 58 3 3 12 23 19 45s16 42 19 45c16 12 151 209 167 243 10 20 21 37 26 37s6 11 2 24c-3 13-1 32 4 43 14 26 26 277 14 269-6-3-9-22-7-42 2-24-2-37-11-41-8-3-22-20-30-37-9-17-28-41-42-53-21-17-27-31-27-62 0-22-2-35-6-29-12 19-21-10-9-31 5-11 6-22 1-25-4-3-11-20-15-38-10-52-38-118-47-112-4 2-20-15-35-38-15-24-38-59-51-79-13-19-23-42-23-52 0-15-65-136-80-147-7-6-49-74-65-105-7-14-24-22-55-26-44-6-44-6-8-7 33-2 58-21 58-46 0-6-152 2-158 8-2 2 10 12 27 22 20 12 27 21 19 25-9 6-9 14-1 31 21 46 6 71-59 103-33 17-62 33-65 38-2 4 7 42 21 85 14 42 32 106 41 142s21 70 25 75c5 6 12 30 16 53s11 45 15 48c5 3 7 10 3 15-3 5-1 16 5 23 7 8 14 27 16 42 7 48 13 72 24 93 14 25 14 74 1 66-12-8-12-2 0 53 8 35 7 46-5 58-13 13-15 12-19-8-5-24-15-94-21-141-2-15-7-33-13-40-5-7-13-32-17-57s-13-58-19-75c-27-65-37-96-60-190-14-56-43-139-69-193-6-13-26-27-51-34-23-7-49-20-60-30-10-9-32-20-47-23-24-6-38 0-79 35-38 32-56 41-73 36-21-5-27 4-69 92-26 53-49 117-52 142-7 46-11 56-59 142-15 26-27 52-27 59 0 6-13 27-30 46-27 30-30 41-30 96 0 99 47 209 102 241 57 34 141-9 123-64-4-11-2-20 4-20s11-12 11-27v-27l17 23c16 23 17 23 30 5 12-17 13-12 7 36-6 54-5 56 38 103 24 26 49 47 56 47 21 0 32-48 32-141 0-58 4-88 10-84 6 3 10 1 10-4 0-6-6-11-12-11-9 0-8-4 2-10 13-8 13-10-2-10-11 0-16-6-13-17 16-80 30-95 37-38 2 19 0 35-5 35s-5 6 1 13 13 41 17 77 9 72 12 80 5 25 4 37c-1 13 11 37 32 60 32 34 37 36 60 26 18-8 29-25 37-53 6-22 15-40 20-40s-2-26-15-58c-13-33-26-83-30-113l-5-54 28 70 1-34c1-40-19-111-31-111-8 0-12 15-9 37 3 25-20 23-29-3-10-25-9-36 16-112 3-10 8-10 25-2 15 9 20 19 16 36-2 13-1 24 3 24 11 0 30 106 30 165 0 34 5 57 15 65 8 6 17 21 21 33 12 39 56 97 74 97 30 0 53-36 48-75-2-22 0-35 7-35s17-10 23-22c9-20 11-17 13 27 1 28 1 61 0 75-2 34-57 80-95 80-21 0-37-9-52-27-21-27-23-27-30-8-31 88-29 85-87 85-36 0-59-5-67-15-7-8-16-13-20-10s-10-5-14-18c-6-21-7-21-26 11-32 52-67 45-128-25l-50-56-36 22c-90 56-163 24-221-97-33-68-48-136-42-183 4-28 1-42-8-45-7-3-16-13-19-21-7-17 14-73 27-73 5 0 6-4 3-9s1-14 9-21 12-17 9-22c-4-6 5-20 19-32 15-11 33-39 41-61s40-101 71-175 60-146 66-159c7-16 5-31-4-51-10-19-11-33-4-45 6-12 5-25-3-41-18-33-39-38-49-10-12 29-43 28-69-4-14-18-24-22-45-16-15 3-27 13-27 21 0 21-9 19-30-7-15-19-21-21-31-10-11 10-9 12 9 12 27 0 28 11 2 35-11 10-22 32-26 50-3 19-13 35-22 38-10 2-23 16-29 30-7 15-18 38-24 51s-14 39-18 57c-5 25-12 34-26 34-15 0-30 21-60 80-40 83-41 87-46 265-2 65-21 130-39 130-9 0-16-79-10-105 1-5 4-44 6-85s9-102 15-135 12-69 13-80c2-11 6-30 10-42 7-23 0-29-20-15-5 4-18 25-28 47-9 22-24 52-32 68-8 15-16 53-18 85-2 33-6 64-10 70-3 6-9 37-12 69s-8 65-11 73-7 41-9 72-4 60-5 65c-5 26 2 53 12 47 7-4 9 0 5 12-3 11-1 37 5 59 14 54 16 124 4 129-6 2-3 17 7 36 10 17 18 40 18 51s8 32 17 47c29 45 135 143 180 166 23 11 74 38 113 58 38 21 88 42 111 48 62 17 65 60 5 63-42 3-24 20 50 50 66 26 75 27 203 24 85-3 136-9 140-16 5-7 26-10 54-8 26 3 57-1 70-8 40-20 79-27 177-30 77-2 114-9 190-35 97-34 169-75 170-97 0-7 6-13 13-13 17 0 87-66 130-123 29-38 37-58 37-90 0-31 5-45 20-54 10-7 22-28 26-48 3-19 10-38 15-41s9-33 10-67 5-73 9-87c5-15 6 2 3 44-4 50-3 67 6 62 14-9 15 77 1 105-8 15-7 19 5 19s11 4-5 20c-11 11-22 32-25 47-12 56-26 73-97 126-78 58-148 129-148 150 0 27-119 97-166 97-11 0-34 6-50 14s-65 24-109 36-85 26-93 32c-15 13-463 21-532 9zm-250-185c-19-18-80-38-80-26s50 38 75 39c17 1 17-1 5-13zm1413-869c-9-31-23-59-30-61-18-7-17 39 2 58 8 8 15 21 15 28 0 14 21 40 27 34 2-2-4-28-14-59zm-23-89c0-7-9-26-19-42-11-17-17-35-14-40 4-6-1-5-9 2-9 8-15 19-13 25 19 55 26 67 40 67 8 0 15-6 15-12zm-1471-346c21-41 21-42 2-30-26 16-45 53-36 68 9 14 8 15 34-38zm896-124c25-12 45-26 45-30 0-12-47-21-75-14-14 4-42 2-63-4-26-8-45-8-64-1-42 16-34 38 20 54 66 21 85 20 137-5zm-821-52c38-35 32-64-6-33-16 12-35 57-24 57 3 0 16-11 30-24zm529-8c54-27 38-40-41-32-78 8-88 14-72 44 9 18 17 20 43 14 18-3 49-15 70-26zm-353-61c0-8-11-19-25-25-30-14-33-48-5-57 21-7 28-25 10-25-5 0-9-3-8-7 0-5-2-15-5-23s-7-28-9-44c-2-21-9-30-25-32-13-2-23 1-23 7 0 5 5 7 10 4 11-7 11-3 16 90 4 91 6 99 23 112 21 16 41 16 41 0zm495-8c-4-5-24-9-46-9s-38 4-35 9 24 9 46 9c23 1 38-3 35-9zm-242-71c44-11 65-28 33-28-7 0-33-9-57-19-53-24-129-42-129-31 0 4-17-1-37-11s-39-17-41-15c-2 3-1 23 3 45 5 31 11 41 25 41 39 0 119 24 113 33-4 6 3 8 18 3 13-3 45-12 72-18zm361-7 40-1-34-25c-19-14-40-25-48-25s-29-7-48-16c-40-19-64-13-65 18-2 23-2 23-6 1-4-20-9-22-79-18-41 1-77 5-80 8-11 10 111 48 138 43 16-3 28-1 28 4 0 9 50 17 90 14 14-2 43-3 64-3zm120-18c3-4 29-6 56-4 49 2 51 2 65-33 8-19 15-52 15-72 0-30-3-35-17-29-31 11-146 33-216 40-37 4-70 11-73 16s-15 9-27 10c-14 1-7 5 18 12 22 7 51 18 65 26 73 42 98 50 114 34zm-841-50c-7-47-23-67-23-30 0 22 18 67 27 67 1 0-1-17-4-37zm547-68 25-14-35-14c-30-13-94-29-125-32-5 0-53-10-105-22-96-21-204-42-206-39-1 0 1 19 5 40 5 33 12 42 39 53 31 13 32 12 32-12 0-34 16-32 28 4 11 31 10 31 152 44 87 9 166 5 190-8zm-500-135c0-27-4-52-10-55-6-4-10 17-10 55s4 59 10 55c6-3 10-28 10-55zm750 35c19-8 42-16 50-19 8-2-19-4-60-5-79 0-187-6-360-19-58-5-109-5-114-1-14 12 76 32 141 31 24-1 43 3 43 7 0 10 191 29 235 23 17-2 46-10 65-17zm168 9c17-5 22-14 22-40 0-19-4-34-10-34-5 0-10 5-10 11s-9 24-21 40c-21 30-19 33 19 23zm-129-112c23-12 49-22 58-22 34 0 103-33 103-49 0-34-13-61-29-61-12 0-17 8-16 27 0 22-6 29-35 38-19 5-40 13-46 17-17 11-178 19-399 19-125 0-194 3-184 9 8 5 44 12 80 15 35 3 78 8 95 10 16 3 59 8 94 11 36 3 66 6 67 7s39 2 86 1c66 0 93-5 126-22zm-629-27c-34-18-100-30-100-18 0 13 55 31 95 32h30l-25-14zm500-76c30-5 86-12 125-15 71-5 101-14 49-14-16 0-85-2-153-4-69-2-135 0-148 5s-25 4-28-2c-4-6-61-7-150-4-82 3-146 2-149-4-3-5 13-9 35-9 23-1 44-3 47-6s-8-6-24-6c-17 0-34-4-39-9-6-6-26-12-45-14s-45-9-57-15c-26-14-36-15-29-3 9 14-25 23-40 10-9-7-14-8-14-1 0 17 70 44 99 39 15-3 33-2 41 4 11 6 8 9-12 9-40 0-44 19-6 35 38 17 404 20 498 4zm245-49h43l-4-37c-3-20-7-39-9-42-5-4-45 14-95 43-14 8-34 18-45 22-18 6-17 8 10 14 17 4 36 6 43 4 8-2 33-4 57-4zm-158-6c-3-3-12-4-19-1-8 3-5 6 6 6 11 1 17-2 13-5zm-127-62c24-9 24-9-11-21-20-6-73-18-120-26-46-8-106-19-134-24-82-15-276-33-283-27-3 4 4 19 15 34 37 50 212 83 403 77 58-2 116-7 130-13zm185-72c14-6 4-9-37-9-31-1-60 4-63 9-8 12 71 12 100 0zm-95-30c14-4-18-5-70-3-52 3-97 7-99 9-8 7 144 2 169-6zm-247-17c-7-2-19-2-25 0-7 3-2 5 12 5s19-2 13-5zm-156-19c-3-3-12-4-19-1-8 3-5 6 6 6 11 1 17-2 13-5zm624-28c1-6 0-15-1-21-1-5-3-28-4-50s-6-39-12-39c-5 1-39 7-76 13-90 15-332 21-448 11-116-11-240-3-234 15 7 16 68 29 261 56l162 22 120-27c110-24 179-27 166-6-3 5-3 14 0 22 6 16 65 20 66 4zm52-118c-2-5-9-8-14-8-6 0-8 19-5 48 6 63 7 64 16 12 4-25 6-48 3-52zm-893 42c-30-23-40-25-40-6 0 16 15 24 45 25 18 1 18-1-5-19zm143-69c14-5 3-14-49-36-38-16-83-40-102-53-18-12-38-20-43-16-6 3-2 12 10 21 12 8 21 21 21 29 0 17 94 64 125 63 11 0 28-4 38-8zm581-10c62-12 96-26 96-40 0-9-135-4-240 7-36 5-125 8-198 7-72 0-132 3-132 7s21 14 48 22c57 17 334 16 426-3zm170-66c3-9 0-15-8-15-17 0-27 11-20 21 8 14 21 11 28-6zm-175-41c2-2 0-14-6-26-8-19-16-22-59-19-27 1-53 7-58 12-6 5-33 9-62 9-32 0-56 5-63 14-10 12-8 15 11 19 25 4 230-3 237-9zm-579-6c0-7-4-19-8-25-11-17-68-28-76-14-4 6 0 11 8 11 9 0 16 6 16 14s6 17 13 19c23 10 47 7 47-5zm662-50c-9-9-12-7-12 12s3 21 12 12 9-15 0-24zm-522 15c-8-3-23-12-32-21-16-14-18-13-18 1 0 17 15 25 45 25 14 0 15-1 5-5zm92-41c8-8 4-10-18-7-16 2-40 4-54 4-18 1-21 4-11 10 18 12 68 8 83-7zm257 12c17-4 31-10 31-15 0-11-124-12-160-2-24 7-23 8 10 14 50 9 83 10 119 3zm-255-44c20-7 26-16 26-40 0-40-20-120-30-120-14 0-80 80-80 97 0 9 7 25 17 35 13 15 13 18 2 18-30 0-59-31-59-63-1-41-17-17-22 33-3 32 0 35 27 41 47 10 91 10 119-1zm141-60c3-5-3-10-14-10-12 0-21 5-21 10 0 6 6 10 14 10s18-4 21-10zm123-16c17-5 20-10 12-19-12-15-44-9-61 11-9 11-8 14 7 14 11 0 29-3 42-6zm-18-64c0-15-28-19-39-6-6 7-8 15-5 18 7 8 44-2 44-12zm-110-66c0-2-9-4-20-4s-20 4-20 9 9 7 20 4 20-7 20-9z"/> <path d="m1215 3029c-16-3-22-7-13-8 10-1 18-11 20-28 2-20 8-28 21-27 23 2 127-98 172-165 33-50 34-54 18-67-16-11-17-13-2-19 14-5 16-17 12-66-5-50-3-59 10-59 36 0 97-43 126-89 17-26 31-55 31-64 0-11 8-17 24-17 31 0 33 18 25 156-4 63-12 110-22 125-8 13-18 40-21 60-6 35-68 129-90 138-17 7-76 73-76 86 0 6-11 22-24 34-23 22-29 23-83 13-32-5-67-7-78-3s-33 4-50 0zm223-69c9-19 29-45 44-58 60-51 123-176 142-282 3-19 8-44 10-56 2-11 0-27-4-34-7-11-14-8-31 14-35 45-60 65-96 78-27 10-33 17-33 40 0 20 4 26 15 22 10-4 18 2 23 17 7 18 4 28-15 45-12 12-23 24-23 28 0 11-82 115-129 164-23 24-41 45-41 47 0 5 46 10 88 10 28-1 36-6 50-35z"/> <path d="m388 2830c-42-26-78-58-78-69 0-6-11-18-24-26-21-14-54-74-62-111-1-6-5-21-9-33s-2-21 4-21 11 10 11 23c0 36 43 101 78 118 19 10 28 19 20 21-11 4-10 8 1 22 15 17 105 66 124 66 7 0 20 7 30 15 17 12 14 13-26 12-24-1-55-9-69-17z"/> <path d="m395 2740c-3-5-15-10-26-10-10 0-19-4-19-10 0-5 8-10 18-9 22 1 62 17 44 18-7 1-10 6-7 11 3 6 4 10 1 10s-8-4-11-10z"/> <path d="m355 2692c-14-10-37-53-32-59 3-3 11 6 18 19 6 12 17 26 23 30s8 9 5 12c-2 3-9 2-14-2z"/> <path d="m290 2578c0-19 2-20 10-8 13 19 13 30 0 30-5 0-10-10-10-22z"/> <path d="m319 2533c-6-16-17-44-25-63l-14-35 4 38c3 20 1 37-5 37-5 0-10-10-11-22-4-67-4-86 4-112 4-16 8-54 9-83 1-30 6-56 11-59s7 15 3 43c-6 57 18 211 40 254 9 17 11 29 5 29s-15-12-21-27z"/> <path d="m281 2534c0-11 3-14 6-6 3 7 2 16-1 19-3 4-6-2-5-13z"/> <path d="m792 2438c-9-28-17-127-13-165 1-15 50-73 61-73 10 0 30 63 30 93 0 9-4 17-10 17-5 0-10-9-10-19 0-11-4-22-9-25-12-8-21 18-21 64 0 25-6 42-16 48-13 7-14 15-5 47 13 48 7 59-7 13z"/> <path d="m1491 2369c-23-29-41-60-41-71s-5-29-12-41c-17-31-16-48 5-79 17-25 24-28 78-28 65 0 84 12 114 70 21 41 30 140 12 140-7 0-27 14-45 30-18 17-42 30-52 30s-36-23-59-51zm118-33 25-26-26-28c-14-15-31-37-37-49-14-28-66-40-86-19-10 10-12 17-4 21 6 4 8 13 5 21-8 20 7 54 39 92 30 35 42 34 84-12z"/> <path d="m381 2278c-14-38-22-144-15-195 5-40 12-53 38-71 44-30 66-29 38 1-12 13-22 29-22 36s-7 19-15 27-12 21-8 29c3 9 0 22-7 30-12 14-8 113 6 150 4 8 3 15 0 15-4 0-10-10-15-22z"/> <path d="m1e3 2250c0-16 5-30 10-30 6 0 10 14 10 30 0 17-4 30-10 30-5 0-10-13-10-30z"/> </g> </svg>