<?xml version='1.0' encoding='utf-8'?>
<svg xmlns="http://www.w3.org/2000/svg" viewBox="0 0 320 160.05"> <g transform="translate(-125.72 -366.61)"> <path transform="matrix(1.6721 0 0 1.6719 1405.1 4644.4)" d="m-611.05-2471.9c0 4.2127-3.4151 7.6278-7.6279 7.6278s-7.6279-3.4151-7.6279-7.6278 3.4151-7.6279 7.6279-7.6279 7.6279 3.4151 7.6279 7.6279z" stroke="#000" stroke-linecap="round" stroke-linejoin="round" stroke-width="2.8708"/> <g transform="matrix(2.2228 0 0 2.2226 1804.2 6027.5)" font-family="'Rounded M+ 1p bold'" font-size="106.05" letter-spacing="0" word-spacing="0"> <path d="m-659.81-2531.9c-3.5913 2.0734-7.6946-4.3406-4.7501-7.2851 14.181-11.914 51.285-7.8288 52.254 11.676 0.512 7.278-2.0554 13.241-9.5513 18.317-43.656 28.33-13.133 17.487-6.1086-13.622 3.3874-19.915-21.608-15.079-31.844-9.0858z" stroke="#000" stroke-linecap="round" stroke-linejoin="round" stroke-width="2.1595"/> </g> <path transform="matrix(1.8428 0 0 1.8426 1689.7 5074.9)" d="m-720.75-2528c0 2.1312-1.7276 3.8588-3.8588 3.8588s-3.8588-1.7276-3.8588-3.8588 1.7276-3.8587 3.8588-3.8587 3.8588 1.7276 3.8588 3.8587z"/> <path transform="matrix(1.8428 0 0 1.8426 1716 5074.9)" d="m-720.75-2528c0 2.1312-1.7276 3.8588-3.8588 3.8588s-3.8588-1.7276-3.8588-3.8588 1.7276-3.8587 3.8588-3.8587 3.8588 1.7276 3.8588 3.8587z"/> <path d="m350.64 438.37c10.464 8.5944 23.02 12.328 33.808 0" fill="none" stroke="#000" stroke-linecap="round" stroke-width="5.6"/> <path d="m212.76 368.65c-46.978 0-85.044 34.889-85.044 77.969s38.066 78.031 85.044 78.031c38.042 0 70.221-22.897 81.098-54.484l20.979-12.087 26.052-14.968-30.06 0.062h-13.088c-1.9703-41.477-39.265-74.524-84.981-74.524z" fill="none" stroke="#000" stroke-linecap="round" stroke-linejoin="round" stroke-width="4"/> </g> </svg>