<?xml version='1.0' encoding='utf-8'?>
<svg xmlns="http://www.w3.org/2000/svg" enable-background="new 0 0 2842.967 5000" version="1.1" viewBox="0 0 2843 5e3"> <path d="m1512.5 4026.8c-9.84-0.455-17.332-9.686-16.732-20.579 1.286-23.344 2.39-46.721 4.19-69.989l-6.715-0.795c-14.319-0.693-25.116-14.573-24.05-29.092 0.622-8.469 10.294-101.22 10.294-101.22 1.511-14.609 13.475-25.393 26.65-23.916l10.578 1.171c2.336-19.077 4.97-38.088 7.431-57.13 1.218-75.07 5.843-74.036-3.921-75.365-4.404-0.599-4.401-0.599-6.39 3.881-45.741 103-150.96 139.56-228.02 98.409-66.207-35.358-121.99-145.88-64.679-267.21 21.609-45.75 54.991-76.576 91.259-92.269 96.243-41.644 192.93 26.004 214.88 129.01 6.316 29.642 1.762 32.959 6.944 34.036 10.051 2.089 7.804 2.379 20.201-37.659 8.209-27.289 7.605-19.474 13.134-45.02l8.372 1.883-8.372-1.883c2.62-11.915 0.725-3.847 8.888-37.674-4.904-3.26-8.953-9.211-8.353-18.713 0.907-14.347 21.162-33.408 25.226-43.962 27.165-70.535 22.256-138.21 61.833-210.57 116.42-212.86 99.133-174.33 153.38-267.74 11.217-11.806 29.615-20.62 48.39-20.44 94.807-126.81 200.35-223.08 317.63-326.18l-5.131-29.101c-1.362-7.795 6.838-15.25 14.567-12.958l28.779 8.453c90.998-80.059 170.38-152.05 248.17-243.41-2.457-8.647-4.982-17.237-7.545-25.763-2.374-7.897 5.191-17.036 13.278-16.507 8.987 0.588 18.021 1.206 27.111 1.697 65.51-81.902 137.16-204.59 188.73-338.37l-13.255-18.745c-4.731-6.619-0.62-17.79 7.37-19.908l22.297-6.206c50.497-146.55 74.658-299.6 71.506-453.44-7.896-5.08-15.802-10.052-23.689-14.957-6.941-4.317-7.61-16.255-1.001-21.301 7.454-5.691 15.077-11.512 22.347-17.39-11.806-185.17-63.817-366.71-148.11-530.7-11.115-1.324-22.176-2.533-33.18-3.637-8.137-0.817-13.789-11.291-10.045-18.642 5.098-10.009 9.872-19.994 14.721-30.159-114.5-198.29-258.99-352.75-446.77-479.66-12.406 4.995-24.548 9.971-36.849 15.408-7.525 3.326-17.678-2.949-18.042-11.152-0.596-13.406-1.291-27.028-2.283-40.51-205.18-122.5-428.99-183.34-644.06-188.24-25.929 35.609-24.43 38.683-34.715 38.97-10.077 0.281-9.132-3.559-35.635-38.773-218.48 7.112-401.21 63.989-588.11 153.35-1.832 12.793-3.389 25.908-4.84 38.742-0.918 8.12-11.437 13.798-18.781 9.957-21.34-11.025-18.032-9.407-35.218-17.734-140.73 80.392-235.7 152.3-356.09 283.2-7.375 8.452-34.699 40.512-42.281 50.531 3.342 11.201 6.788 22.285 10.317 33.257 2.515 7.817-4.907 17.487-13.194 17.29-11.586-0.275-23.258-0.405-35.013-0.415-70.649 98.172-127.77 205.13-173.13 332.78 6.516 9.035 13.066 17.964 19.679 26.761 4.972 6.614 0.798 18.181-6.681 20.453-10.637 3.232-21.297 6.613-31.992 10.096-32.996 106.63-49.308 200.53-60.582 294.92 4.032 3.452 2.421 1.934 4.163 4.675 8.783-19.15 31.838-10.434 29.5 10.455-2.319 20.712-24.941 24.717-30.705 5.537-2.056 2.475-1.105 1.611-5.708 4.805l-3.449 40.507-31.018-2.089c9.501-126.08 26.375-238.08 61.337-358.01 82.265-275.59 225.96-501.18 446.98-680.31 135.53-109.84 320.2-211.77 521.09-272.27 1171.7-352.91 2253.9 936.94 1631.9 2061.9-215.01 380.52-507.59 497.61-732.36 808.61 1.432 4.104 2.987 10.429 3.422 18.484 1.945 35.97-13.476 43.703-59.163 115.77-60.104 94.807-69.434 149.37-88.591 204.51-22.446 64.608-40.033 68.356-51.7 118.23-10.469 44.755-3.147 72.639-18.151 80.383-3.838 1.981-7.981 2-11.881 1.159-27.39 109.9-44.71 213.29-58.447 328.15l10.212 1.13c13.158 1.475 22.696 13.92 21.264 27.759l-8.555 95.88c-0.978 13.994-12.516 24.658-25.726 23.768l-9.647-0.679c-4e-3 0.058-4.101 68.62-4.101 68.62-0.571 10.539-9.049 18.745-18.832 18.302l-96.585-4.498zm-1477.5-2701.8c1.661-1.159 3.817-2.472 4.233-6.246 0.328-2.979-0.647-4.958-2.753-6.753-0.489 4.332-1.073 8.669-1.48 12.999zm8.585-6.579c-0.919 7.9 3.93 14.766 10.201 15.319 14.825 1.306 18.156-26.762 2.862-28.403-6.332-0.68-12.145 5.199-13.063 13.084zm71.119-358.83c-11.178 31.892-6.891 19.296-15.078 45.458 9.88-3.184 19.75-6.215 29.559-9.251 4.331-1.341 6.538-7.82 3.768-11.515-6.106-8.142-12.204-16.363-18.249-24.692zm209.21-383.82c-10.217 13.242-20.791 26.234-30.309 39.992 10.917 0.075 21.605 0.129 32.503 0.535 4.66 0.174 8.881-5.309 7.453-9.719-3.291-10.171-6.515-20.439-9.647-30.808zm455.58-366.94c-15.977 8.368-32.032 16.567-47.913 25.166 11.027 5.353 22.107 11.121 32.945 16.813 4.085 2.145 10.048-1.005 10.564-5.622 1.35-12.056 2.81-24.177 4.404-36.357zm657.72-156.4c-33.032-0.499-15.204-0.716-57.813 0.177 7.942 10.629 15.689 21.275 23.254 31.923 2.658 3.741 9.492 3.539 12.067-0.178 7.354-10.616 14.805-21.29 22.492-31.922zm702.38 221.17c-6.91-4.801-10.989-7.278-46.756-29.597 0.811 12.742 1.467 25.407 2.005 37.989 0.196 4.59 5.934 8.152 10.164 6.269 21.023-9.153 17.993-7.912 34.587-14.661zm477.51 530.12c-22.695-42.682-15.253-28.839-22.558-41.682-4.46 9.344-9.012 18.588-13.799 27.902-2.111 4.106 1.084 10.046 5.666 10.49 10.184 0.988 20.413 2.099 30.691 3.29zm153.07 583.62-1.725-41.311c-6.807 5.333-13.616 10.594-20.445 15.76-3.674 2.779-3.365 9.559 0.575 11.994 7.195 4.445 14.397 8.96 21.595 13.557zm-85.504 498.74c11.109-29.315 8.485-22.091 12.284-33.312-19.883 5.552-22.849 4.931-24.75 10.066-1.901 5.136 0.347 6.199 12.466 23.246zm-219.85 379.95c8.461-10.236 16.962-20.419 25.137-31.014-8.226-0.474-16.406-1.044-24.545-1.603-4.601-0.316-8.836 4.833-7.493 9.269 2.341 7.731 4.646 15.513 6.901 23.348zm-286.14 278.09 29.883-26.271-26.402-7.781c-4.28-1.274-8.954 2.856-8.19 7.301l4.709 26.751zm-259.91 370.54c277.79-380.08 717.75-518.13 873.42-1179.7 233.45-1044.4-802.46-2039.2-1879.1-1617.2-416.59 163.3-720.6 475.52-843.14 926.72 5.372-21.15 20.118-66.528 31.3-98.446 130.44-369.7 411.07-667.18 833.81-823.17 57.209-20.617 131.57-45.738 213.97-61.409 110.48-20.9 241.81-35.905 396.34-19.685 827.45 86.851 1456.4 945.01 1172.6 1802.2l0.227 2.599-1.217 0.36c-6.039 19.051-13.436 37.551-20.466 56.194l0.698 1.022-1.794 1.852c-4.284 11.826-21.65 53.057-34.33 80.012-212.23 451.16-537.03 558.5-787.99 894.86l45.661 33.738zm-211.25 532.33c2.452-13.281 1.063-40.808 12.669-78.426 11.478-37.203 26.545-53.126 33.034-68.064 27.76-63.904 25.981-79.428 43.874-124.44 47.41-119.27 108.56-182.58 115.27-204.35 4.417-14.327 4.912-28.778-2.177-42.328l-52.465-37.73c-18.573-0.715-32.361 10.488-35.544 13.338-30.106 51.084-49.623 77.833-152.03 265.44-38.133 69.86-32.617 135-60.916 208.65-4.392 11.429-20.873 29.595-23.464 36.989l121.74 30.92zm-200.68 84.983c-12.731 3.976-25.479 8.038-38.243 12.185 0.505 2.628 1.129 5.277 1.688 7.91l33.801-5.359c5.859-0.938 4.011-4.981 2.754-14.736zm-35.663 28.704 0.145 9.417 38.898-0.344c-0.13-11.596 0.868-15.459-4.745-14.871-5.654 0.592-13.486 2.024-34.298 5.798zm-71.64-42.506c6.367-9.436 12.449-18.377 18.481-27.391 4.448-6.646 2.982-13.632-3.553-16.599-30.455-13.825-25.021-10.807-56.357-12.131-5.224-0.221-10.999 6.1-9.414 13.032 2.904 12.702 4.202 21.138 6.925 32.984 16.145-3.348 30.707 8e-3 43.918 10.105zm-67.308-46.572c-5.665-1.126-8.978 4.889-29.483 20.177-6.364 4.745-7.874 14.092-1.232 19.509 18.698 15.247 18.842 20.595 23.162 15.883 6.274-6.842 13.464-12.332 21.718-16.09-6.885-32.069-6.267-37.91-14.165-39.479zm113.96 34.783c-2.662-3.86-4.608-7.205-6.993-10.069-3.742-4.492-9.734-4.16-13.39 0.851-1.624 2.226-14.371 20.03-15.376 22.736 11.636-4.514 23.299-8.844 35.759-13.518zm27.154-40.187c-3.319 3.236-20.786 21.275-26.078 27.125l5.023 7.92c11.026-8.566 22.572-16.016 33.168-25.424-7.456-11.124-7.916-13.713-12.113-9.621zm-36.104 15.703 4.822 4.881c28.565-28.917 27.526-27.565 27.776-28.787 0.241-1.176 0.321-2.785-0.218-3.638-1.17-1.85-2.66-3.513-4.267-4.896-2.636-2.27-4.229 0.824-28.113 32.44zm-14.341-12.839 6.864 6.055c0.55-0.646 22.272-29.595 24.392-33.44 0.818-1.483 0.736-2.673-0.61-3.692-13.099-9.911-7.506-13.989-30.646 31.077zm-12.675-6.996 5.689 2.676c2.038-3.375 15.771-29.239 17.233-31.916 3.712-6.802 3.685-7.01-2.158-10.484-5.812-3.456-4.671-1.032-20.764 39.724zm-17.011-9.535c-0.642 3.051-1.027 2.135 7.977 5.764 0.854-2.025 2.851-7.027 5.367-13.937 10.035-27.563 11.134-28.35 7.324-29.663-13.709-4.721-10.504-10.456-20.668 37.836zm-14.01-6.233c-0.672 6.783-0.585 6.783 5.46 6.824 0.546-0.98-0.183 1.93 3.744-15.51 6.069-26.952 7.367-27.717 3.921-28.69-10.805-3.05-9.238-1.865-13.125 37.376zm-21.843-33.895c1.33 35.573 1.902 39.787 3.553 39.955 2.609 0.265 5.257 0.223 7.986 0.299 0.633-3.773 2.116-23.421 3.349-42.448 0.126-1.937-0.638-2.9-2.356-2.865-9.496 0.189-12.768-1.248-12.532 5.059zm-12.034 43.689 6.248-2.495c-2.176-45.041-1.09-45.094-5.144-43.776-10.175 3.306-10.145-5.259-1.104 46.271zm-18.689 6.364 9.009-2.944c-0.125-1.576-6.551-38.166-8.05-41.365-0.376-0.804-1.653-1.682-2.314-1.448-3.453 1.225-6.847 2.77-10.242 4.301-3.069 1.384-1.895 1.331 11.597 41.456zm-25.167-15.419 12.007 23.993 5.803-4.53c-4.71-13.368-9.079-26.823-13.594-40.381-12.167 7.574-11.712 5.516-4.216 20.918zm-28.228 5.005c8.096 10.755 16.215 21.419 24.355 31.99l8.136-6.158c-17.308-30.807-19.38-37.431-21.546-35.652-3.641 2.988-7.117 6.311-10.945 9.82zm-11.069 21.24c5.671 5.848 22.351 21.828 25.01 24.291l4.546-6.839c-8.129-10.62-16.236-21.333-24.322-32.14-7.587 9.287-9.476 10.313-5.234 14.688zm-19.252 21.641c10.667 6.8 21.335 13.542 32.15 20.226 1.988-2.716 3.974-5.427 6.045-8.136-24.034-22.411-28.129-27.623-30.385-24.404-2.67 3.811-5.065 7.905-7.81 12.314zm27.04 32.717 1.613-4.2-32.386-20.657c-3.969 10.431-6.691 14.766-2.545 16.271 15.566 5.651 5.918 3.615 33.318 8.586zm8.148 2.246 29.767 2.87 0.313-0.933c-5.2-4.527-10.294-9.249-15.63-13.581-2.974-2.415-8.484-0.571-10.838 3.437-1.378 2.347-2.264 5.085-3.612 8.207zm81.303 70.087c11.998 1.888 23.359-7.93 25.811-21.735 2.463-13.867-5.237-26.901-17.146-29.071-11.977-2.183-23.752 7.29-26.24 21.07-2.663 14.749 5.33 27.808 17.575 29.736zm78.269 28.541c5.944 4.789 11.521 3.033 14.693-4.605 8.321-20.036 12.584-42.806 11.109-64.978-0.522-7.852-5.084-11.339-11.89-9.117-0.645 0.211-26.147 9.205-28.685 10.492 2.233 17.423-0.391 33.58-8.643 48.985 0.724 0.667 16.251 13.45 23.416 19.223zm22.406-3.648c0.571 0.752-2.541-1.057 30.785 17.732 4.261 2.402 5.471-3.739 9.133-12.573l-36.85-13.583-3.068 8.424zm-126.79 10.774c-5.863 9.328-11.723 18.39-17.274 27.745-3.742 6.306-2.283 12.195 3.535 15.079 3.328 1.65 6.812 2.956 10.316 4.084 15.022 4.837 12.378 6.982 48.504 4.143 6.369-0.5 9.766-6.409 8.025-13.332-8.258-32.835-7.523-32.279-9.908-31.684-15.099 3.767-29.524 2.468-43.198-6.035zm-7.506-6.182c-13.414-12.174-14.455-26.553-18.69-24.914-8.126 3.146-16.244 6.404-24.346 9.765-6.869 2.849-9.188 9.915-5.184 16.837 2.055 3.553 14.92 24.915 17.592 27.814 3.788 4.111 9.428 3.391 12.704-1.591 6.012-9.139 11.658-18.408 17.924-27.911zm-48.67-25.359c6.186-1.764 12.253-4.266 18.365-6.429l-5e-3 -1.027-27.666-6.46c0.196 2.631 0.164 4.554 0.506 6.352 0.968 5.09 4.757 8.717 8.8 7.564zm-54.724-3.484 37.178-8.477-5e-3 -3.436c-37.465-4.352-37.227-4.512-37.296-1.764-0.111 4.486 0.062 8.962 0.123 13.677zm8.803 23.038c8.656-3.371 24.55-9.899 31.792-12.925l-2.551-9.291-36.771 7.774c-0.051 0.818-0.118 1.115-0.079 1.382 2.055 13.912 1.715 15.356 7.609 13.06zm6.217 25.875c33.337-21.758 28.624-18.511 30.086-19.935-0.647-2.612-1.24-5.229-1.815-7.848-4.564 1.921-25.816 11.286-32.227 14.22-4.25 1.945-3.484 3.386-0.391 11.921 1.288 3.551 1.33 3.612 4.347 1.642zm38.131-2.488-4.574-9.148-33.644 21.366c9.964 20.397 3.877 16.473 38.218-12.218zm-16.583 47.307c8.57-10.8 17.63-21.552 26.409-32.209l-3.666-6.29c-6.724 5.71-5.134 3.693-27.283 24.925-3.987 3.821-2.354 4.714 4.54 13.574zm39.456-20.307-7.049-5.824c-1.636 1.03-25.637 30.205-25.885 30.508-2.062 2.521 0.337 3.577 6.237 9.057 4.457 4.141 2.219 6.165 26.697-33.741zm-2.538 47.318c0.128-0.304 14.896-35.387 15.263-36.898l-4.959-4.208c-7.044 11.742-13.528 23.307-20.141 34.969-2.081 3.67 1.492 5.328 4.884 7.821 3.119 2.292 3.271 2.297 4.953-1.684zm21.112 7.956 10.536-37.735-9.161-3.169c-2.223 4.685-12.311 28.385-15.404 35.762-2.412 5.753-1.734 4.842 2.083 6.682 7.69 3.705 10.209 4.639 11.946-1.54zm25.535-32.89-6.115-2.074c-0.492 1.617-6.501 25.75-9.221 36.597-1.808 7.208-1.673 7.485 4.682 8.716 6.655 1.29 4.872 3.239 10.654-43.239zm16.915 0.814c-2.903 0.126-5.609 0.153-8.305 0.451-1.514 0.168-1.28 1.869-6.435 40.006-0.717 5.524 2.214 4.841 10.659 4.903 6.31 0.047 4.598 0.573 4.081-45.36zm21.781 38.061c-5.66-39.37-5.538-38.768-6.645-38.777-1.809-0.014-3.632 0.253-5.342 0.407-0.328 0.978-0.56-3.377 0.811 39.381 0.166 5.163 1.962 5.711 6.983 4.939 3.834-0.59 4.802-1.712 4.193-5.95zm21.456-7.788c-0.088-0.3-10.308-35.16-10.754-36.073l-8.552 3.337c1.169 10.57 3.151 25.097 5.525 39.004 0.793 4.645 2.285 4.139 9.965 1.706 5.245-1.662 5.545-2.089 3.816-7.974zm5.619-40.936c-0.275-0.608-0.637-1.162-0.954-1.735l-6.041 2.896c7.397 24.27 12.566 40.491 13.604 40.142 2.544-0.854 5.057-1.963 7.421-3.35 3.869-2.268 0.365-6.164-14.03-37.953zm13.916-11.866-7.624 5.793c14.495 33.063 16.161 39.256 19.749 36.654 10.169-7.375 11.357-5.984 8.657-10.199-6.906-10.78-13.806-21.424-20.782-32.248zm-3.908-7.584c-9.932-9.155-19.617-17.598-30.105-24.682 2.531 9.176 5.033 18.388 7.771 27.44 1.664 5.5 6.125 8.014 10.672 5.577 4.022-2.156 7.615-5.396 11.662-8.335zm38.049-34.157-4.147 7.034c4.285 3.389 23.74 18.368 29.443 22.625 1.465 1.094 2.514 1.013 3.387-0.985 5.318-12.178 12.657-6.15-28.683-28.674zm171.04 161.61c13.829-115.78 31.71-222.35 59.858-334.45l-93.608-22.939c-22.802 93.362-39.248 189.03-51.879 285.6l-7.419-0.956 7.419 0.956c-9.105 74.987-6.658 55.973-7.458 61.489l93.087 10.3zm-133.44 121.78 6.095 0.055c0.167 8e-3 0.296 0.11 0.462 0.123l7e-3 -0.107 142.43 10.283c3.761 0.275 7.061-2.764 7.328-6.759 0.542-8.096 8.597-96.349 8.597-96.349 0.411-3.966-2.307-7.513-6.057-7.909l-148.63-15.627c-3.784-0.399-7.204 2.7-7.639 6.9l-10.248 100.75c-0.254 3.613 3.411 8.408 7.66 8.639zm116.13 96.382c4.591-71.513 4.909-67.26 4.67-69.581l-97.757-6.559c-0.236 6.979-2.153 35.408-4.09 70.456l97.177 5.684z"/> <path d="m1382.9 3577.4c2.123-12.387-4.975-23.902-15.76-25.676-10.947-1.801-21.207 6.464-23.274 18.665-2.244 13.243 5.279 25.595 15.92 27.119 10.668 1.528 20.987-7.699 23.114-20.108z"/> <path d="m1188.8 4763.9c2.313 3e-3 1.85 2.766 2.02 9.463 3.247 0.035 3.355 2.297 3.389 2.718 0.812 12.627 1.54 13.161-2.426 13.615 0.883 7.542 0.437 5.498 2.552 12.985 0.169 0.598 0.337 0.71 0.847 0.61 0.97-0.19 4e-3 -1.564 1.499-5.675 5.373-14.773 25.398-13.331 31.01 0.766 5.622 14.122-7.762 29.059-21.336 23.312-7.06-2.989-8.17-8.771-9.002-8.601-0.769 0.158-1.217-0.531 0.262 7.958l0.427 1.493-0.828 0.225 0.828-0.225 1.137 4.004c2.967 0.271 1.565 5.129 1.971 6.711 2.265 8.83 5.848 11.774 9.373 21.8 4.39 12.486 10.895 24.422 15.29 30.091 0.719 1.547 0.993 3.819 0.397 5.719 9.278 13.977 20.123 26.917 32.22 38.572l2.9-0.706c0.774-0.19 1.603 0.586 1.458 1.395l-0.506 2.993c8.492 7.776 17.6 14.871 27.135 21.345l2.425-1.071c0.744-0.331 1.698 0.287 1.702 1.095l0.016 2.681c10.349 6.614 21.22 12.426 32.494 17.365l1.884-1.292c0.667-0.458 1.734-0.047 1.886 0.751l0.439 2.245c13.453 5.505 27.45 9.718 41.728 12.561l1.897-1.992c0.553-0.583 1.681-0.391 1.997 0.362l1.092 2.562c17.245 3.075 34.835 4.136 52.334 3.15l1.612-2.875c0.392-0.708 1.534-0.793 2.024-0.148l2.027 2.64c14.324-0.733 37.935-4.98 61.292-13.377l0.83-3.869c0.164-0.792 1.231-1.211 1.891-0.74l3.27 2.303c19.56-8.001 38.324-18.387 55.215-31.639l-0.365-4.063c-0.077-0.801 0.826-1.511 1.601-1.254 1.325 0.44 2.637 0.854 3.943 1.24 14.848-12.348 28.432-26.334 39.798-42.025l-1.386-3.586c-0.296-0.748 0.366-1.691 1.184-1.661l3.909 0.117c9.358-13.406 17.181-27.891 23.467-43.014l-1.951-2.803c-0.462-0.66-0.047-1.736 0.756-1.904l3.386-0.727c4.161-10.986 7.639-22.251 10.142-33.752l-2.3-2.315c-0.584-0.569-0.384-1.709 0.366-2.019l3.043-1.272c3.045-16.463 3.053-21.529 3.708-28.616-0.416-0.316-0.25-0.177-0.434-0.434-0.799 1.871-3.121 1.173-2.989-0.889 0.126-1.963 2.34-2.542 3.045-0.661 0.192-0.248 0.102-0.161 0.545-0.488l0.135-3.94 3.108 0.095c-2.466 101.42-71.66 191.26-169.97 219.49-99.43 28.552-204.56-10.212-261.72-94.99-7.109-0.962-8.705-10.226-22.6-34.943-3.651-6.493-4.588-11.371-5.223-14.368-2.18-10.292-7.638-15.315-4.106-16.455-3.592-12.694-6.206-25.68-7.545-38.789l-1.021 0.117c-1.315 0.153-2.553-1.064-2.758-2.717-0.957-12.521-1.92-14.371 2.371-14.542-0.318-12.191-2.107-10.112 11.191-10.115zm458.11 11.777c-0.568 0.427-0.481 0.97-0.097 1.261l0.097-1.261zm-0.831 0.671c0.147-1.75-2.146-2.033-2.308-0.122-0.15 1.764 2.148 2.017 2.308 0.122zm-3.996 34.826c0.333-1.474 0.574-2.967 0.864-4.45-4.09 1.703-4.248 1.083-0.864 4.45zm-12.249 39.214 1.75-4.338c-4.552 0.97-4.572 0.295-1.75 4.338zm-27.05 48.214 3.017-4.176c-5.253-0.163-4.996-0.922-3.017 4.176zm-44.859 46.22c1.421-1.113 2.873-2.191 4.268-3.337-2.903-0.927-4.75-1.824-4.616-0.481l0.348 3.818zm-61.123 34.094 4.897-1.885c-4.39-3.1-3.728-3.601-4.897 1.885zm-66.918 13.932 4.496-0.305c-2.745-3.586-2.191-3.823-4.496 0.305zm-57.33-3.937 3.839 0.718c-1.45-3.416-1.027-3.679-3.839-0.718zm-45.97-14.153 3.129 1.266c-0.185-0.955-0.334-3.19-1.45-2.421l-1.679 1.155zm-36.689-19.971 3.168 2.068c-0.016-3.527 0.494-3.692-3.168-2.068zm-31.056-24.942 2.999 2.894c0.712-4.063 1.218-3.927-2.999-2.894zm-38.512-34.453c53.637 79.02 150.11 117.95 244.34 97.496 93.088-20.208 165.55-96.472 180.77-190.16-25.954 147.26-181.58 230.35-315.05 175.42l-0.248 0.012-0.025-0.123c-1.744-0.716-3.506-1.39-5.233-2.145l-0.101 0.066-0.164-0.188c-40.423-17.58-75.371-47.018-99.592-83.56l-4.702 3.183zm-32.996-62.926c0.675 2.125 3.579 6.595 5.052 13.706 0.724 3.495 1.505 7.543 4.966 13.701 13.893 24.715 15.576 34.003 21.685 33.857l5.385-3.573c0.659-1.857 0.042-3.725-0.13-4.17-0.925-1.236-9.215-12.866-15.421-30.432-2.609-7.385-6.626-13.554-7.757-16.742-3.264-9.208-1.151-6.44-1.752-9.964l-12.028 3.617zm13.509-18.237 2.988-2.681-0.469-0.66c-3.727 2.382-3.469 1.766-2.519 3.341zm2.099-4.102-0.383-0.866-3.573 1.522c0.796 1.848 0.192 1.795 3.956-0.656zm8.261 0.992c-0.397 2.051-1.305 4.439 0.396 4.365 3.322-0.144 2.704-0.179 5.593-1.395 1.424-0.599-0.223-2.151-1.568-3.844-1.351 0.902-2.811 1.215-4.421 0.874zm9.897-1.618c0.403-0.616 0.19-1.392-0.627-1.572-4.45-0.979-1.284-1.171-4.119 1.713 3.183 3.958 2.52 3.254 4.746-0.141zm-13.686 4.535c0.588 0.34 1.909 1.384 2.226-0.042 0.059-0.266 0.511-2.324 0.496-2.593l-2.722 2.635zm0.429 1.2-0.776-0.488c-0.656 1.227-1.4 2.401-1.912 3.717 1.872 1.024 1.084 1.286 2.688-3.229zm0.591 4.49c0.082-0.085-6e-3 -0.04 0.785-3.922l-0.641-0.216c-1.096 3.088-1.433 3.804-1.008 4.042 0.26 0.145 0.705 0.347 0.864 0.096zm2.615-3.442-0.871-0.219c-0.074 0.08-0.638 3.5-0.648 3.94-4e-3 0.165 0.059 0.262 0.225 0.286 1.615 0.23 1.303 0.813 1.294-4.007zm1.44 0.036-0.63 0.025c-0.082 4.443-0.27 4.182 0.628 4.198 0.641 0.01 0.466-0.065 2e-3 -4.223zm2.917 3.398c-1.149-4.147-0.727-3.603-1.939-3.48 0.032 0.406 0.214 1.986 0.522 3.848 0.036 0.22 0.151 0.317 0.362 0.279 0.823-0.151 1.216-0.062 1.055-0.647zm1.725-0.744c-1.531-3.605-1.271-3.357-1.956-3.031-4e-3 0.097-0.132-0.347 1.004 3.664 0.05 0.175 0.164 0.255 0.336 0.214 0.594-0.143 0.865-0.262 0.616-0.847zm2.302-1.024c-2.275-3.522-1.778-3.108-2.829-2.648 0.12 0.325 0.846 1.959 1.617 3.493 0.079 0.156 0.191 0.196 0.34 0.114 0.828-0.449 1.179-0.484 0.872-0.959zm-0.845-3.923-0.465 0.461c2.144 3.343 2.083 3.463 2.394 3.168 0.259-0.245 0.705-0.387 0.453-0.779-2.104-2.508-1.877-2.222-2.382-2.85zm4.186 1.095c-0.606-0.48-2.426-2.058-2.745-2.372l-0.7 0.603c0.028 0.044 0.041 0.066 0.062 0.099 2.932 3.512 2.412 3.096 3.423 1.976 0.096-0.106 0.091-0.202-0.04-0.306zm-1.871-3.579-0.358 0.589c0.939 0.854 1.87 1.7 2.882 2.512 0.853-1.2 1.074-0.683-2.524-3.101zm4.389-0.169-3.428-1.471-0.513 0.797c3.903 2.4 3.057 2.37 3.941 0.674zm-2.982-2.915-0.16 0.7 3.432 1.492c0.516-1.466 0.904-1.034-3.272-2.192zm4.175-1.448-3.712-0.356-0.26 0.85c4.28 1.155 3.599 1.282 3.972-0.494zm-3.687-1.506 1e-3 0.382 3.739 0.406c-6e-3 -1.472 0.552-1.713-3.74-0.788zm-0.837 0.115-2.865 0.837 5e-3 0.086c2.108 0.568 2.775 1.06 2.86-0.923zm-9.974-2.989c-2.87 0.546-2.007 5.287 0.923 4.657 2.814-0.606 1.907-5.195-0.923-4.657zm-8.305 3e-3c-2.277-0.8-1.154 5.064 0.037 7.36 0.714 1.377 1.318 0.495 3.693-1.655-0.91-1.458-1.191-3.034-0.899-4.712-0.088-0.032-1.966-0.69-2.831-0.993zm-1.997 1.084c-0.08-0.06 0.277 0.044-3.492-0.681-0.52-0.1-0.401 0.715-0.443 1.534l3.921 0.048 0.014-0.901zm11.661-4.981c0.674-2.33 1.528-3.858 0.067-4.081-2.545-0.388-3.587 0.031-5.876 0.86-1.461 0.529 0.1 2.164 1.263 3.923 0.329 0.497 1.445-1.349 4.546-0.702zm0.906 0.303c3.396 1.298 0.955 2.75 4.552-0.034 0.568-0.442 0.569-1.083-0.015-1.533-3.754-2.895-3.245-2.674-4.537 1.567zm3.852 1.724 0.032 0.084 2.816-0.349c-0.77-1.613-1.211-0.919-2.848 0.265zm6.844-2.481-3.275 1.802 0.104 0.273c4.341-0.977 3.788-0.513 3.171-2.075zm-4.159 0.418 0.522 0.668 3.26-1.715c-0.019-0.065-0.034-0.11-0.034-0.11-0.828-1.388-0.236-1.452-3.748 1.157zm1.312-3.848c-2.308 2.42-2.119 2.154-2.306 2.455l0.405 0.584c3.387-2.625 3.172-2.13 2.364-3.025-0.225-0.248-0.231-0.252-0.463-0.014zm-3.576 1.252 0.701 0.624 2.607-2.657c-1.46-1.379-0.864-1.265-3.308 2.033zm0.364-4.358c-0.577 1.113-1.225 2.249-1.742 3.376l0.533 0.423c2.773-3.609 2.251-3.116 1.209-3.799zm-3.329 2.726 0.836 0.304c0.092-0.083-0.178 0.325 1.761-3.235 0.143-0.262-0.114-0.291-0.811-0.612-0.547-0.254-0.453-0.371-1.786 3.543zm-0.87-4.13c-0.69 3.797-0.617 3.333-0.615 3.572l0.583 0.232c1.338-4.162 1.475-3.714 0.474-4.066-0.355-0.125-0.372-0.123-0.442 0.262zm-2.372 3.381 0.963 0.038c0.848-4.501 0.88-3.928 0.3-4.03-1.405-0.246-1.092-0.428-1.263 3.992zm-1.569-0.038 0.642 0.025c0.047-4.459 0.237-4.188-0.622-4.141-0.698 0.038-0.544-0.127-0.02 4.116zm-1.654 0.369c0.653-0.213 0.898-0.188 0.869-0.462-0.502-4.502-0.144-4.07-1.547-3.748-0.613 0.141-0.464 0.077 0.678 4.21zm-3.015-2.933c1.658 3.89 1.361 3.481 2.078 3.218 3e-3 -0.047 5e-3 -0.08 5e-3 -0.08-1.187-4.06-0.983-4.125-1.818-3.788-0.358 0.146-0.426 0.274-0.265 0.65zm-1.894 1.252c0.039 0.067 1.757 2.889 1.924 3.078l0.739-0.538c-1.776-4.266-1.444-4.012-2.485-3.383-0.469 0.283-0.479 0.328-0.178 0.843zm0.474 3.98 0.144 0.134 0.498-0.436c-2.47-3.76-2.089-3.744-2.947-2.901-0.309 0.304 0.074 0.61 2.305 3.203zm-0.966 1.498 0.55-0.758c-2.277-2.649-2.58-3.283-2.873-2.927-0.94 1.141-1.606 0.549 2.323 3.685zm0.605 0.592c1.228 0.557 2.402 1.037 3.62 1.354-2.107-3.024-1.957-3.559-3.62-1.354zm-2.527 4.384 0.162-0.799c-4.356-1.529-3.744-1.614-3.917-0.451-0.099 0.662-0.179 0.599 3.755 1.25zm-21.056-11.867c1.354 13.181 3.974 26.241 7.625 38.997l9.254-2.692c-3.075-10.05-5.118-20.384-6.744-30.753l0.74-0.108-0.74 0.108c-1.029-8.068-0.771-6.02-0.83-6.616l-9.305 1.064zm10.285-15.526-0.047-7e-3c-14.917 0.788-14.97 0.43-14.88 1.635 0.886 11.604 0.641 12.2 1.65 12.093 15.605-1.644 15.59-1.302 15.448-2.433-0.772-11.998-0.284-11.511-2.171-11.288zm-11.822-9.427c0.096 5.771 0.115 7.735 0.151 7.932l9.788-0.426c-0.03-0.522 0.036 2.063-0.203-7.517l-9.736 0.011z"/> <path d="m1210.5 4805.4c0.497 2.634 4.418 1.996 3.893-0.754-0.551-2.886-4.425-2.065-3.893 0.754z"/> <path d="m1641.3 4763.9c-2.313-4e-3 -1.85-2.766-2.019-9.463-3.247-0.033-3.356-2.297-3.389-2.717-0.811-12.628-1.54-13.162 2.427-13.615-0.884-7.548-0.437-5.496-2.552-12.984-0.169-0.599-0.337-0.711-0.847-0.611-0.969 0.191-4e-3 1.565-1.499 5.676-5.372 14.773-25.398 13.331-31.01-0.767-5.601-14.069 7.724-29.074 21.336-23.312 7.06 2.989 8.175 8.77 9.002 8.601 0.769-0.157 1.216 0.531-0.262-7.958l-0.426-1.493 0.828-0.224-0.828 0.224-1.137-4.004c-2.969-0.271-1.563-5.124-1.971-6.712-2.271-8.848-5.841-11.752-9.373-21.8-4.39-12.487-10.894-24.422-15.289-30.091-0.719-1.546-0.993-3.819-0.397-5.719-9.278-13.978-20.123-26.918-32.22-38.572l-2.9 0.705c-0.774 0.19-1.603-0.587-1.458-1.395l0.506-2.992c-8.492-7.777-17.6-14.871-27.135-21.346l-2.425 1.072c-0.744 0.33-1.698-0.288-1.702-1.096l-0.016-2.68c-10.349-6.615-21.221-12.426-32.494-17.365l-1.883 1.292c-0.667 0.458-1.734 0.047-1.886-0.751l-0.439-2.244c-13.453-5.505-27.45-9.718-41.728-12.561l-1.896 1.991c-0.553 0.584-1.681 0.392-1.997-0.361l-1.092-2.562c-17.245-3.075-34.836-4.136-52.334-3.15l-1.611 2.875c-0.392 0.708-1.534 0.793-2.024 0.149l-2.027-2.641c-14.294 0.731-37.89 4.964-61.291 13.377l-0.83 3.869c-0.164 0.792-1.231 1.211-1.89 0.74l-3.27-2.303c-19.557 8.001-38.324 18.387-55.215 31.639l0.365 4.063c0.077 0.8-0.826 1.51-1.601 1.253-1.325-0.44-2.637-0.854-3.943-1.24-14.848 12.348-28.432 26.334-39.798 42.025l1.386 3.586c0.296 0.748-0.366 1.69-1.184 1.661l-3.909-0.117c-9.358 13.407-17.181 27.891-23.467 43.015l1.95 2.803c0.462 0.66 0.048 1.736-0.755 1.904l-3.387 0.727c-4.161 10.986-7.639 22.251-10.141 33.752l2.3 2.315c0.584 0.568 0.384 1.71-0.366 2.019l-3.043 1.272c-3.061 16.547-3.07 21.706-3.708 28.616 0.416 0.315 0.249 0.176 0.434 0.433 0.799-1.871 3.12-1.172 2.988 0.889-0.126 1.964-2.34 2.542-3.045 0.661-0.193 0.249-0.102 0.161-0.545 0.489l-0.135 3.939-3.108-0.095c2.465-101.42 71.663-191.26 169.97-219.49 99.43-28.551 204.56 10.212 261.72 94.991 7.087 0.956 8.843 10.47 22.601 34.942 3.651 6.494 4.588 11.372 5.223 14.368 2.18 10.292 7.638 15.316 4.106 16.455 3.592 12.694 6.206 25.68 7.546 38.789l1.021-0.117c1.315-0.153 2.553 1.065 2.758 2.717 0.957 12.521 1.92 14.371-2.37 14.542 0.308 12.192 2.095 10.112-11.201 10.115zm-458.11-11.777c0.566-0.424 0.484-0.968 0.097-1.261l-0.097 1.261zm0.832-0.67c-0.147 1.746 2.146 2.037 2.308 0.123 0.15-1.775-2.151-2-2.308-0.123zm3.995-34.827c-0.333 1.474-0.574 2.967-0.864 4.45 4.09-1.703 4.248-1.082 0.864-4.45zm12.249-39.214-1.75 4.339c4.552-0.97 4.572-0.295 1.75-4.339zm27.05-48.214-3.017 4.175c5.253 0.165 4.996 0.923 3.017-4.175zm44.859-46.22c-1.421 1.114-2.873 2.191-4.268 3.338 2.904 0.928 4.751 1.824 4.615 0.481l-0.347-3.819zm61.123-34.093-4.897 1.885c4.374 3.089 3.727 3.607 4.897-1.885zm66.918-13.931-4.496 0.305c2.745 3.584 2.191 3.822 4.496-0.305zm57.33 3.936-3.839-0.717c1.45 3.414 1.027 3.678 3.839 0.717zm45.97 14.153-3.129-1.266c0.186 0.956 0.336 3.192 1.45 2.42l1.679-1.154zm36.689 19.971-3.168-2.068c6e-3 1.408-0.264 3.597 0.97 3.043l2.198-0.975zm31.056 24.941-2.999-2.894c-0.711 4.065-1.217 3.927 2.999 2.894zm38.512 34.454c-53.752-79.188-150.3-117.91-244.34-97.496-93.089 20.209-165.55 96.474-180.77 190.16 25.955-147.27 181.58-230.35 315.05-175.42l0.248-0.012 0.025 0.122c1.744 0.717 3.506 1.39 5.233 2.145l0.101-0.065 0.164 0.188c40.423 17.58 75.371 47.017 99.592 83.56l4.702-3.183zm32.996 62.925c-0.675-2.125-3.58-6.594-5.052-13.705-0.724-3.496-1.505-7.544-4.966-13.701-13.901-24.729-15.576-34.003-21.685-33.857l-5.385 3.573c-0.659 1.856-0.042 3.725 0.13 4.17 0.925 1.236 9.215 12.866 15.421 30.432 2.576 7.292 6.665 13.665 7.757 16.742 3.266 9.209 1.149 6.439 1.752 9.964l12.028-3.618zm-13.509 18.237-2.988 2.682 0.468 0.661c3.744-2.392 3.467-1.772 2.52-3.343zm-2.099 4.102 0.384 0.867 3.573-1.522c-0.798-1.851-0.194-1.794-3.957 0.655zm-8.26-0.991c0.397-2.051 1.305-4.439-0.396-4.365-3.322 0.145-2.704 0.18-5.593 1.395-1.423 0.599 0.225 2.153 1.568 3.845 1.35-0.904 2.811-1.217 4.421-0.875zm-9.897 1.618c-0.403 0.615-0.19 1.392 0.627 1.572 4.452 0.979 1.281 1.176 4.119-1.713-3.182-3.954-2.516-3.263-4.746 0.141zm13.686-4.535c-0.587-0.339-1.907-1.387-2.226 0.043-0.059 0.265-0.511 2.323-0.496 2.592l2.722-2.635zm-0.429-1.2 0.776 0.487c0.656-1.227 1.4-2.4 1.912-3.717-1.874-1.024-1.089-1.281-2.688 3.23zm-0.592-4.49c-0.082 0.085 6e-3 0.04-0.785 3.922l0.641 0.216c1.112-3.133 1.425-3.808 1.008-4.042-0.261-0.146-0.704-0.348-0.864-0.096zm-2.615 3.442 0.871 0.219c0.074-0.08 0.638-3.5 0.648-3.94 4e-3 -0.164-0.059-0.262-0.225-0.286-1.614-0.23-1.303-0.813-1.294 4.007zm-1.439-0.036 0.63-0.025c0.078-4.443 0.279-4.182-0.628-4.197-0.649-0.012-0.47 0.064-2e-3 4.222zm-2.917-3.399c1.149 4.146 0.727 3.604 1.939 3.48-0.032-0.405-0.215-1.985-0.523-3.848-0.036-0.219-0.15-0.316-0.362-0.278-0.823 0.151-1.216 0.062-1.054 0.646zm-1.726 0.745c1.529 3.603 1.273 3.357 1.956 3.031 5e-3 -0.097 0.128 0.348-1.004-3.663-0.049-0.175-0.164-0.255-0.336-0.214-0.594 0.141-0.865 0.261-0.616 0.846zm-2.302 1.024c2.334 3.613 1.784 3.105 2.829 2.648-0.12-0.325-0.847-1.958-1.618-3.492-0.078-0.157-0.191-0.196-0.34-0.115-0.827 0.449-1.178 0.483-0.871 0.959zm0.845 3.923 0.465-0.462c-2.144-3.342-2.083-3.462-2.394-3.167-0.259 0.245-0.705 0.388-0.453 0.779 2.113 2.519 1.875 2.219 2.382 2.85zm-4.186-1.095c0.605 0.48 2.426 2.058 2.745 2.372l0.7-0.602c-0.028-0.045-0.042-0.066-0.062-0.1-2.932-3.511-2.412-3.096-3.423-1.976-0.096 0.106-0.091 0.202 0.04 0.306zm1.871 3.579 0.358-0.589c-0.939-0.855-1.87-1.7-2.882-2.512-0.853 1.199-1.075 0.682 2.524 3.101zm-4.389 0.168 3.428 1.471 0.513-0.797c-3.919-2.409-3.056-2.37-3.941-0.674zm2.982 2.916 0.16-0.7-3.432-1.492c-0.515 1.462-0.908 1.035 3.272 2.192zm-4.175 1.447 3.712 0.356 0.26-0.85c-4.251-1.146-3.594-1.301-3.972 0.494zm3.687 1.507-1e-3 -0.383-3.739-0.405c7e-3 1.472-0.552 1.712 3.74 0.788zm0.837-0.114 2.866-0.838-5e-3 -0.085c-2.112-0.572-2.774-1.059-2.861 0.923zm9.974 2.987c2.869-0.546 2.009-5.287-0.922-4.656-2.815 0.606-1.909 5.195 0.922 4.656zm8.305-2e-3c2.277 0.8 1.154-5.064-0.037-7.36-0.715-1.377-1.318-0.495-3.693 1.655 0.91 1.458 1.19 3.034 0.899 4.712l2.831 0.993zm1.997-1.084c0.08 0.06-0.276-0.047 3.492 0.681 0.52 0.1 0.401-0.715 0.443-1.534l-3.921-0.048-0.014 0.901zm-11.661 4.98c-0.67 2.321-1.528 3.857-0.066 4.08 2.542 0.388 3.576-0.027 5.876-0.86 1.461-0.528-0.096-2.156-1.264-3.922-0.328-0.496-1.445 1.35-4.546 0.702zm-0.906-0.302c-3.396-1.298-0.954-2.75-4.552 0.034-0.568 0.442-0.569 1.083 0.015 1.533 3.755 2.896 3.244 2.673 4.537-1.567zm-3.852-1.724-0.032-0.084-2.816 0.349c0.774 1.622 1.224 0.911 2.848-0.265zm-6.844 2.481 3.275-1.801-0.104-0.274c-4.341 0.977-3.788 0.513-3.171 2.075zm4.159-0.418-0.522-0.668-3.26 1.715c0.019 0.065 0.034 0.11 0.034 0.11 0.828 1.387 0.237 1.451 3.748-1.157zm-1.311 3.847c2.421-2.538 2.12-2.152 2.306-2.455l-0.405-0.584c-3.386 2.625-3.172 2.131-2.364 3.026 0.224 0.248 0.23 0.252 0.463 0.013zm3.576-1.252-0.701-0.624-2.607 2.657c1.46 1.379 0.863 1.266 3.308-2.033zm-0.365 4.359c0.577-1.113 1.225-2.25 1.742-3.376l-0.533-0.424c-2.772 3.608-2.251 3.117-1.209 3.8zm3.329-2.726-0.836-0.304c-0.092 0.083 0.178-0.325-1.761 3.235-0.143 0.263 0.114 0.291 0.811 0.612 0.548 0.253 0.456 0.362 1.786-3.543zm0.87 4.13c0.687-3.779 0.618-3.344 0.614-3.573l-0.582-0.232c-1.338 4.162-1.475 3.715-0.474 4.066 0.355 0.125 0.372 0.123 0.442-0.261zm2.373-3.381-0.963-0.038c-0.848 4.501-0.88 3.928-0.3 4.03 1.411 0.248 1.094 0.365 1.263-3.992zm1.569 0.038-0.642-0.025c-0.047 4.459-0.237 4.188 0.622 4.141 0.697-0.039 0.542 0.126 0.02-4.116zm1.653-0.369c-0.445 0.145-0.901 0.157-0.87 0.462 0.502 4.502 0.144 4.07 1.547 3.748 0.599-0.138 0.467-0.077-0.677-4.21zm3.015 2.932c-1.65-3.871-1.358-3.483-2.078-3.218-3e-3 0.046-5e-3 0.08-5e-3 0.08 1.171 4.005 0.97 4.129 1.818 3.788 0.358-0.145 0.426-0.272 0.265-0.65zm1.894-1.251c-0.039-0.067-1.757-2.889-1.924-3.079l-0.739 0.538c1.776 4.266 1.443 4.011 2.485 3.383 0.469-0.283 0.479-0.327 0.178-0.842zm-0.474-3.981-0.144-0.134-0.498 0.436c2.6 3.958 2.101 3.737 2.947 2.901 0.308-0.303-0.074-0.609-2.305-3.203zm0.966-1.497-0.55 0.758c2.301 2.678 2.584 3.278 2.873 2.927 0.939-1.141 1.606-0.55-2.323-3.685zm-0.605-0.592c-1.228-0.557-2.402-1.037-3.62-1.354 2.106 3.021 1.965 3.547 3.62 1.354zm2.527-4.384-0.162 0.799c4.355 1.527 3.743 1.618 3.917 0.451 0.099-0.663 0.179-0.599-3.755-1.25zm21.056 11.866c-1.354-13.181-3.974-26.242-7.625-38.997l-9.254 2.692c3.076 10.05 5.119 20.384 6.744 30.753l-0.74 0.107 0.74-0.107c1.029 8.068 0.771 6.02 0.83 6.616l9.305-1.064zm-10.285 15.526 0.047 7e-3c14.917-0.787 14.969-0.429 14.88-1.635-0.888-11.623-0.643-12.199-1.65-12.093-15.605 1.644-15.59 1.302-15.447 2.434 0.767 11.935 0.279 11.511 2.17 11.287zm11.822 9.428c-0.094-5.645-0.115-7.739-0.151-7.932l-9.789 0.426c0.03 0.522-0.036-2.063 0.204 7.517l9.736-0.011z"/> <path d="m1619.6 4722.4c-0.497-2.634-4.418-1.996-3.893 0.754 0.552 2.886 4.425 2.066 3.893-0.754z"/> </svg>